# xmcd CD database file
# Copyright (C) 1993-1998 Ti Kan
# 
# Track frame offsets:
#     150
#     35037
#     60035
#     82979
#     103330
#     121384
#     143199
#     186390
#     215061
#     233200
# 
# Disc length: 3428 seconds
# 
# Revision: 1
# Processed by: cddbd v1.4b41PL1 Copyright (c) Steve Scherf et al.
# Submitted via: DiscPlay 4.0.4
# 
DISCID=8f0d620a
DTITLE=Backyard Blues - Rock N' Roll Mama
DYEAR=1900
DGENRE=
TTITLE0=Rock n' Roll Mama
TTITLE1=It's Just Me
TTITLE2=All Alone
TTITLE3=Pretty Mama
TTITLE4=The Edge
TTITLE5=South Bound
TTITLE6=Slow Down Woman
TTITLE7=She Get's Cookin
TTITLE8=Dancing Shoes
TTITLE9=Baby What!
EXTD=
EXTT0=
EXTT1=
EXTT2=
EXTT3=
EXTT4=
EXTT5=
EXTT6=
EXTT7=
EXTT8=
EXTT9=
PLAYORDER=
